**ABCDEFGHIJKLMNOPQRSTUVWXYZabcdefghijklmnopqrstuvwxyz**************************
**PARASOLID !"#$%&'()*+,-./:;<=>?@[\]^_`{|}~0123456789**************************
**PART1;
MC=AMD64;
MC_MODEL=Intel64 Family 6 Model 61 Stepping 4, GenuineIntel;
MC_ID=unknown;
OS=Windows_NT;
OS_RELEASE=unknown;
FRU=Parasolid Version 28.0, build 204, 11- 9-2015;
APPL=SOLIDWORKS 2016-2016040;
SITE=;
USER=unknown;
FORMAT=text;
GUISE=transmit;
KEY=makeProjectedPlanarWire;
FILE=makeProjectedPlanarWire.x_t;
DATE=Thu Dec 28 19:30:09 2017;
**PART2;
SCH=SCH_2800204_28002;
USFLD_SIZE=0;
**PART3;
**END_OF_HEADER*****************************************************************
T51 : TRANSMIT FILE created by modeller version 280020423 SCH_2800204_28002_1300
6200 0 12 30 CCCCCCCCCCCCCDI5 owner1040 0 CCCCCCCCCA13 boundary_mesh1006 0 A16 i
ndex_map_offset0 0 1 dA9 index_map82 0 A17 node_id_index_map82 0 A20 schema_embe
dding_map82 0 A5 child12 0 A14 lowest_node_id0 0 1 dZ1 1148 0 0 0 0 0 0 1e3 1e-8
 0 2 0 1 0 3 1 3 4 5 6 7 8 9 0 0 0 0 0 0 0 13 255 3 89 0 1 0 10 0 0 7 10 50 255
 4 2 0 10 0 0 0 +0 -.0708682408883347 0 0 -1 0 0 0 -1 30 255 5 58 0 8 11 0 0 +-8
26550986752835e-27 -.0708682408883347 .1807016852399195 1 0 45741188614562e-25 2
9 255 6 87 0 9 12 0 .085 -.0708682408883347 .180701685240308 19 8 CCCCCCCA5 owne
r12 0 Z7 88 0 1 0 0 3 V0 16 255 8 57 0 ?13 0 14 5 0 0 1 18 255 9 85 0 15 0 16 6
 ?1 17 255 15 0 0 0 0 9 17 18 0 13 -18 16 82 0 19 9 20 12 ?1 17 19 0 21 13 22 16
 23 14 0 24 +18 20 79 0 22 16 25 26 ?1 29 12 84 0 16 26 6 .0650000000000024 -.07
08682408883347 .1807016852402165 29 26 81 0 20 27 12 .065 -.0708682408883347 .15
0477916398634 29 27 78 0 25 28 26 .085 -.0708682408883347 .150477916398634 18 25
 76 0 17 20 29 27 ?1 29 28 75 0 29 30 27 .0584502360131052 -.0708682408883347 .1
85625724005376 18 29 73 0 31 25 32 28 ?1 29 30 72 0 32 33 28 .091549763986895 -.
0708682408883347 .185625724005376 18 32 70 0 34 29 35 30 ?1 29 33 69 0 35 36 30
 .0915497639868947 -.0708682408883347 .1454730413757812 18 35 67 0 37 32 38 33 ?
1 29 36 66 0 38 0 33 .0584502360131056 -.0708682408883347 .1454730413757812 18 3
8 64 0 39 35 0 36 ?1 17 39 0 40 37 41 38 31 42 0 43 +15 255 40 6 0 39 10 21 17 3
7 0 40 34 39 35 43 44 0 45 +17 41 0 40 39 34 29 46 47 0 0 +17 31 0 0 0 0 29 39 4
2 0 41 -16 42 8 0 ?39 44 0 48 0 0 1 17 43 0 0 0 0 38 37 44 0 0 -16 44 15 0 ?37 4
9 42 50 0 0 1 16 49 22 0 ?34 47 44 51 0 0 1 30 50 16 0 44 48 51 0 +0 -.070868240
8883347 .1454730413757812 1 0 0 30 48 9 0 42 0 50 0 +.0584502360131072 -.0708682
408883347 646460396334234e-30 1106001344783736e-29 0 -1 30 51 23 0 49 50 52 0 +.
0915497639868939 -.0708682408883347 -506270810420692e-30 553000672391868e-29 0 1
 30 52 30 0 47 51 53 0 +0 -.0708682408883347 .185625724005376 -1 0 0 16 47 29 0
 ?41 18 49 52 0 0 1 30 53 37 0 18 52 54 0 +.0850000000000051 -.0708682408883347
 2380786134266145e-30 2800924863842355e-29 0 -1 16 18 36 0 ?17 55 47 53 0 0 1 30
 54 44 0 55 53 11 0 +0 -.0708682408883347 .150477916398634 -1 0 0 16 55 43 0 ?22
 14 18 54 0 0 1 30 11 51 0 14 54 5 0 +.0649999999999879 -.0708682408883347 -5223
03611906513e-29 803544018317862e-28 0 1 16 14 50 0 ?19 8 55 11 0 0 1 17 22 0 21
 19 17 20 56 55 0 23 +15 21 7 0 17 10 0 17 17 0 21 22 13 25 15 18 0 56 +17 56 0
 0 0 0 25 22 55 0 0 -17 23 0 0 0 0 20 19 14 0 0 -17 13 0 21 17 19 9 24 8 0 0 +17
 24 0 0 0 0 16 13 8 0 0 -14 255 10 1 0 ?0 0 40 3 4 +0 0 0 0 3 17 34 0 40 41 37 3
2 45 49 0 46 +17 45 0 0 0 0 35 34 49 0 0 -17 46 0 0 0 0 32 41 47 0 0 -1 0 
